<svg id="Layer_1_copy" data-name="Layer 1 copy" xmlns="http://www.w3.org/2000/svg" viewBox="0 0 635.5 170.5"><defs><style>.cls-1,.cls-3{fill:#eae9e5;}.cls-2{fill:#3a94cb;}.cls-3{font-size:131.02px;font-family:BerlinSansFBDemi-Bold, Berlin Sans FB Demi;font-weight:700;}</style></defs><g id="logo"><path class="cls-1" d="M553.22,41h-56.8c-19.61,0-35.5,16.4-35.5,36.63V94a37.34,37.34,0,0,0,5,18.8l-5,18.2a2.11,2.11,0,0,0,2.5,2.65l20.44-5.37a34.43,34.43,0,0,0,12.54,2.36h56.8c19.61,0,35.5-16.4,35.5-36.64V77.59C588.72,57.36,572.83,41,553.22,41Z"/><path class="cls-2" d="M554,97.47h32.11a20.08,20.08,0,0,1,20.08,20.08v9a20,20,0,0,1-2.84,10.3l2.82,10a1.16,1.16,0,0,1-1.41,1.45l-11.56-2.94a19.83,19.83,0,0,1-7.09,1.3H554a20.08,20.08,0,0,1-20.08-20.08v-9A20.08,20.08,0,0,1,554,97.47Z"/></g><text class="cls-3" transform="translate(29.31 132.56)">InChat</text></svg>